inDegrees=no
num_controls=7
num_derivatives=13
num_iterations=121
num_multipliers=7
num_parameters=0
num_slacks=7
num_states=26
objective=0.543532
objective_accelerations=0.061004
objective_balance=0.003250
objective_effort=0.047405
objective_height=0.422109
objective_ligament=0.009763
solver_duration=1303.033361
status=Solve_Succeeded
success=true
DataType=double
version=3
OpenSimVersion=4.5
endheader
time	/jointset/ground_pelvis/pelvis_tilt/value	/jointset/ground_pelvis/pelvis_tx/value	/jointset/ground_pelvis/pelvis_ty/value	/jointset/hip_r/hip_flexion_r/value	/jointset/hip_r/hip_adduction_r/value	/jointset/hip_r/hip_rotation_r/value	/jointset/back/lumbar_extension/value	/jointset/patellofemoral_r/patellar_flexion_r/value	/jointset/knee_r/knee_flexion_r/value	/jointset/knee_r/knee_adduction_r/value	/jointset/knee_r/knee_rotation_r/value	/jointset/ankle_r/ankle_angle_r/value	/jointset/subtalar_r/subtalar_angle_r/value	/jointset/ground_pelvis/pelvis_tilt/speed	/jointset/ground_pelvis/pelvis_tx/speed	/jointset/ground_pelvis/pelvis_ty/speed	/jointset/hip_r/hip_flexion_r/speed	/jointset/hip_r/hip_adduction_r/speed	/jointset/hip_r/hip_rotation_r/speed	/jointset/back/lumbar_extension/speed	/jointset/patellofemoral_r/patellar_flexion_r/speed	/jointset/knee_r/knee_flexion_r/speed	/jointset/knee_r/knee_adduction_r/speed	/jointset/knee_r/knee_rotation_r/speed	/jointset/ankle_r/ankle_angle_r/speed	/jointset/subtalar_r/subtalar_angle_r/speed	/forceset/tau_hip_flexion_r	/forceset/tau_hip_adduction_r	/forceset/tau_hip_rotation_r	/forceset/tau_knee_flexion_r	/forceset/tau_ankle_angle_r	/forceset/tau_subtalar_angle_r	/forceset/tau_lumbar_extension	lambda_cid13_p0	lambda_cid14_p0	lambda_cid14_p1	lambda_cid14_p2	lambda_cid14_p3	lambda_cid14_p4	lambda_cid14_p5	/jointset/ground_pelvis/pelvis_tilt/accel	/jointset/ground_pelvis/pelvis_tx/accel	/jointset/ground_pelvis/pelvis_ty/accel	/jointset/hip_r/hip_flexion_r/accel	/jointset/hip_r/hip_adduction_r/accel	/jointset/hip_r/hip_rotation_r/accel	/jointset/back/lumbar_extension/accel	/jointset/patellofemoral_r/patellar_flexion_r/accel	/jointset/knee_r/knee_flexion_r/accel	/jointset/knee_r/knee_adduction_r/accel	/jointset/knee_r/knee_rotation_r/accel	/jointset/ankle_r/ankle_angle_r/accel	/jointset/subtalar_r/subtalar_angle_r/accel	gamma_cid13_p0	gamma_cid14_p0	gamma_cid14_p1	gamma_cid14_p2	gamma_cid14_p3	gamma_cid14_p4	gamma_cid14_p5
1	-0.3370423502395851	-0.01609353940039449	0.6156625383508125	1.610151680945834	-0.2448183939459222	0.06937557407439345	-0.4363250962419594	1.509234201130564	1.509234201130528	0.02920079997136282	0.1745273800189208	0.4363239601271197	0.08600303314984892	-0.002992484406279666	0.002234324435068468	0.01596045741096005	-0.03901786975659438	-0.000936067829638563	-0.013749429919072	-0.000164088635275368	-0.04729361445852816	-0.04729361445852687	-0.0002502928625465568	1.800008251527726e-05	-0.007307030744783658	-0.003910139219622845	-0.3154286495006747	0.01160646462975959	0.01760359252122306	-0.5275232310835843	0.006908503874646004	-0.002622440378266006	0.3219178663765473	-0.0426417697548711	-48.666330105205	-10.79257930355013	3.474224079155042	21.38255007669143	-819.2197686115443	59.33210878610836	1.295314589688375	0.0009578396550860439	2.054590036375992	-6.05045946642492	-0.1124231669546896	-1.483583826714759	-0.02493784375659837	-5.791821957063906	-5.79182195706377	0.1807467927317685	0.01065109596996316	-1.309390350845402	-0.6285355207695297	9.428383453296162e-10	2.35467791844166e-10	1.328453799009454e-08	9.343875843999943e-09	-1.515362257489636e-09	-2.567622778982414e-09	1.737020999778561e-08
1.01	-0.3370081783017058	-0.0160711664603051	0.6159246878257164	1.609459986560665	-0.2448331681757192	0.06916472123583589	-0.4363272116846692	1.508471926877253	1.508471926877286	0.02920779800558559	0.1745275667542996	0.4361853845443894	0.08593283521521772	0.009819243424197984	0.002241124276460179	0.03646241938204048	-0.09929830026074934	-0.002015905225857477	-0.02841831735706851	-0.0002493899446234797	-0.1051581751639717	-0.1051581751639677	0.001648417328770094	2.025330141809792e-05	-0.02041977854907112	-0.01012710826729814	-0.3152517192400257	0.01164411971592486	0.01761724493490404	-0.5271964894642075	0.006934875006364189	-0.002627458269906039	0.3217809206348168	-0.04265682560987715	-48.64007970140956	-10.78739688614537	3.470239054076778	21.35096470411812	-818.9459151047569	59.29390128539944	1.272957644833152	0.0006689084528707469	2.046945539683986	-6.013428793040367	-0.105330007012727	-1.458119007027622	0.001115219834699711	-5.783314295737857	-5.783314295737553	0.1942128247370355	-0.004845733736490434	-1.313971971511445	-0.6179194814646227	1.615168609239238e-09	1.417550290784239e-09	3.143533550720972e-08	1.856023107734975e-08	-6.211919426988382e-09	-5.023245067017722e-09	3.972157328978386e-08
1.02	-0.3368461179325019	-0.0160486999513876	0.6163916461727731	1.608166169080327	-0.244858653975693	0.06880726396197161	-0.4363298918415903	1.507131098783196	1.507131098783298	0.02923373908019253	0.1745278043881524	0.4359153304883561	0.08580053921316948	0.02258520185890586	0.002253038200691222	0.05692223184152249	-0.1594424887900885	-0.003078381864365173	-0.04307031698248754	-0.0002770314796238276	-0.1630043826075468	-0.1630043826075407	0.003538315216305736	2.817977684358871e-05	-0.03360272540500051	-0.01632975270289737	-0.3150747889793741	0.01168177480209323	0.01763089734858869	-0.5268697478448299	0.006961246138083722	-0.002632476161540374	0.3216439748930891	-0.0426797171196194	-48.62263346780565	-10.78139529047915	3.463426948424478	21.35156041591135	-818.8069666600314	59.25636784436391	1.286160710534458	0.001980656222915493	2.046160134056308	-6.023211071461735	-0.1089510154124429	-1.480206264199263	-0.01340588888697238	-5.788151304690226	-5.788151304690216	0.178984331975566	0.01178574727449561	-1.323430161173861	-0.6256705983543357	2.67122493977125e-09	4.745458263981256e-10	4.668469798907911e-08	2.898929959891878e-08	-5.459078972147145e-09	-8.756550191817578e-09	5.901297115704224e-08
1.03	-0.3365564874241097	-0.01602597437268792	0.6170630075964093	1.606271316733299	-0.2448946437575654	0.06830342863412688	-0.4363322225371201	1.505211841579028	1.505211841579107	0.0292785559755597	0.174528106371459	0.4355131846182368	0.08560639800216351	0.03534718564596244	0.00230438899181259	0.07734468922149661	-0.2195330347872119	-0.00411327384697534	-0.05768870244770182	-0.0001456615994579771	-0.2208502505727867	-0.2208502505727842	0.005425273123505221	2.879973865701851e-05	-0.04682928463563891	-0.02248516854556541	-0.3151305368573172	0.01173544825157106	0.01766764366712331	-0.5263021987272223	0.007030969205517692	-0.002625255944355992	0.3218102112462092	-0.04270649621710669	-48.58676345959736	-10.76106144080397	3.447714715332448	21.20724058972242	-818.7264012418921	59.2131550469916	1.27216045918139	0.008558083106047576	2.039481467036473	-6.002734335876952	-0.09980638929083363	-1.4514493708354	0.03292533211511228	-5.783284147133141	-5.783284147133711	0.1935869870054624	-0.006300281271836577	-1.322696925503745	-0.608464295764093	3.731196842411656e-09	-4.901431988382678e-10	6.190445399099699e-08	3.943074274587781e-08	-4.650632419098327e-09	-1.250289289658443e-08	7.827314488731346e-08
